# xmcd CD database file
#
# Track frame offsets:
#	150
#	12220
#	21671
#
# Disc length: 402 seconds
#
# Revision: 0
# Processed by: cddbd v1.5.2PL0 Copyright (c) Steve Scherf et al.
# Submitted via: CDex 1.51
#
DISCID=1d019003
DTITLE=The Momeraths - Dolly Nixtures EP
DYEAR=1900
DGENRE=New Age
TTITLE0=Millipede Stamps
TTITLE1=Circles
TTITLE2=Lies
EXTD=
EXTT0=
EXTT1=
EXTT2=
PLAYORDER=
